<svg width="388" height="584" viewBox="0 0 388 584" fill="none" xmlns="http://www.w3.org/2000/svg">
<g clip-path="url(#clip0_201_7712)">
<path d="M148.971 202.1L129.671 127.8L62.271 89.6L387.171 0L243.271 195.1L188.571 164.8L148.971 202.1Z" fill="#079263"/>
<path d="M387.171 0L129.671 127.8L148.971 202.1L162.271 150L387.171 0Z" fill="#82A73F"/>
<path d="M188.571 164.8L162.271 150L148.971 202.1L188.571 164.8Z" fill="#3C4E1C"/>
<path d="M24.7709 584.1C24.5709 584.1 24.3709 584 24.2709 583.7C23.2709 579.9 22.3709 575.9 21.5709 572C21.5709 571.7 21.6709 571.5 21.9709 571.4C22.2709 571.4 22.4709 571.5 22.5709 571.8C23.3709 575.7 24.2709 579.6 25.2709 583.5C25.2709 583.8 25.2709 584 24.8709 584.1C24.8709 584.1 24.8709 584.1 24.7709 584.1ZM20.1709 560.6C19.9709 560.6 19.6709 560.4 19.6709 560.2C19.1709 556.2 18.7709 552.2 18.5709 548.2C18.5709 547.9 18.7709 547.7 19.0709 547.7C19.3709 547.7 19.5709 547.9 19.5709 548.2C19.7709 552.2 20.1709 556.2 20.6709 560.1C20.6709 560.4 20.4709 560.6 20.2709 560.7L20.1709 560.6ZM18.6709 536.7C18.3709 536.7 18.1709 536.5 18.1709 536.2C18.1709 532.2 18.2709 528.2 18.5709 524.2C18.5709 523.9 18.7709 523.7 19.0709 523.7C19.3709 523.7 19.5709 524 19.5709 524.2C19.2709 528.2 19.1709 532.2 19.1709 536.2C19.1709 536.5 18.9709 536.7 18.6709 536.7ZM20.2709 512.8C19.9709 512.8 19.7709 512.5 19.8709 512.2C20.3709 508.2 21.0709 504.2 21.7709 500.3C21.7709 500 22.0709 499.9 22.3709 499.9C22.6709 499.9 22.7709 500.2 22.7709 500.5C21.9709 504.4 21.3709 508.4 20.8709 512.3C20.8709 512.6 20.6709 512.7 20.3709 512.7L20.2709 512.8ZM24.8709 489.3C24.8709 489.3 24.8709 489.3 24.7709 489.3C24.4709 489.3 24.3709 489 24.3709 488.7C25.3709 484.8 26.5709 481 27.7709 477.2C27.7709 476.9 28.1709 476.8 28.3709 476.9C28.6709 476.9 28.7709 477.3 28.6709 477.5C27.4709 481.3 26.2709 485.1 25.2709 489C25.2709 489.2 24.9709 489.4 24.7709 489.4L24.8709 489.3ZM32.3709 466.5C32.3709 466.5 32.2709 466.5 32.1709 466.5C31.8709 466.4 31.7709 466.1 31.8709 465.8C32.5709 464.1 33.2709 462.3 34.0709 460.6C31.3709 459.4 28.8709 457.9 26.4709 456.3C26.2709 456.1 26.1709 455.8 26.3709 455.6C26.5709 455.4 26.8709 455.3 27.0709 455.5C29.3709 457.1 31.8709 458.5 34.5709 459.7C35.2709 458 36.0709 456.4 36.8709 454.8C36.9709 454.6 37.2709 454.4 37.5709 454.6C37.7709 454.7 37.9709 455 37.7709 455.3C36.9709 456.9 36.2709 458.5 35.4709 460.2C36.1709 460.5 36.8709 460.8 37.5709 461.1C37.8709 461.2 37.9709 461.5 37.8709 461.7C37.7709 462 37.4709 462.1 37.2709 462C36.5709 461.7 35.7709 461.4 35.0709 461.1C34.2709 462.8 33.5709 464.5 32.8709 466.2C32.8709 466.4 32.5709 466.5 32.3709 466.5V466.5ZM56.8709 465.7C54.2709 465.7 51.5709 465.5 48.8709 465.1C48.5709 465.1 48.3709 464.8 48.4709 464.5C48.4709 464.2 48.7709 464 49.0709 464.1C53.0709 464.7 57.0709 464.9 60.8709 464.5C61.1709 464.5 61.3709 464.7 61.3709 465C61.3709 465.3 61.1709 465.5 60.8709 465.5C59.5709 465.6 58.1709 465.7 56.7709 465.7H56.8709ZM72.5709 463C72.3709 463 72.1709 462.9 72.0709 462.7C72.0709 462.4 72.0709 462.2 72.3709 462.1C76.1709 460.7 79.5709 458.8 82.6709 456.4C82.8709 456.2 83.1709 456.3 83.3709 456.4C83.5709 456.6 83.4709 456.9 83.3709 457.1C80.1709 459.6 76.6709 461.5 72.7709 463C72.7709 463 72.6709 463 72.5709 463V463ZM17.7709 448.5C17.6709 448.5 17.4709 448.5 17.3709 448.3C14.6709 445.4 12.2709 442.1 10.1709 438.6C10.0709 438.4 10.1709 438.1 10.3709 437.9C10.5709 437.8 10.8709 437.9 11.0709 438.1C13.0709 441.6 15.4709 444.8 18.0709 447.7C18.2709 447.9 18.2709 448.2 18.0709 448.4C18.0709 448.4 17.8709 448.5 17.7709 448.5V448.5ZM90.9709 448.2C90.9709 448.2 90.7709 448.2 90.6709 448.2C90.4709 448.1 90.3709 447.8 90.4709 447.5C92.5709 443.8 93.7709 440 93.7709 436.4C93.7709 436.1 93.9709 435.9 94.2709 435.9C94.5709 435.9 94.7709 436.1 94.7709 436.4C94.7709 440.2 93.4709 444.2 91.2709 448C91.2709 448.2 90.9709 448.2 90.8709 448.2H90.9709ZM42.8709 444.9H42.6709C42.4709 444.8 42.3709 444.5 42.4709 444.2L42.6709 443.8C44.8709 440 46.9709 436.8 48.9709 434C49.1709 433.8 49.4709 433.7 49.6709 434C49.8709 434.2 49.9709 434.5 49.6709 434.7C47.6709 437.4 45.5709 440.6 43.3709 444.4L43.1709 444.8C43.1709 445 42.8709 445.1 42.7709 445.1L42.8709 444.9ZM5.5709 428C5.3709 428 5.1709 427.9 5.0709 427.7C3.6709 424 2.5709 420.1 1.7709 416.1C1.7709 415.8 1.8709 415.6 2.1709 415.5C2.4709 415.5 2.6709 415.6 2.7709 415.9C3.5709 419.9 4.6709 423.7 5.9709 427.4C5.9709 427.7 5.9709 427.9 5.6709 428C5.6709 428 5.5709 428 5.4709 428H5.5709ZM57.6709 426.1C57.5709 426.1 57.3709 426.1 57.2709 425.9C57.0709 425.7 57.1709 425.4 57.2709 425.2C59.6709 423.3 62.1709 421.8 64.7709 420.6C65.7709 420.1 66.8709 419.8 67.9709 419.5C68.2709 419.5 68.4709 419.5 68.5709 419.8C68.5709 420.1 68.5709 420.3 68.2709 420.4C67.1709 420.7 66.1709 421.1 65.1709 421.5C62.6709 422.6 60.2709 424.1 57.9709 425.9C57.9709 425.9 57.7709 426 57.6709 426V426.1ZM90.3709 425.8C90.2709 425.8 90.0709 425.8 89.9709 425.6C87.4709 422.9 84.0709 421 79.8709 420.1C79.5709 420.1 79.4709 419.8 79.4709 419.5C79.4709 419.2 79.7709 419.1 80.0709 419.1C84.3709 420 88.0709 422.1 90.6709 425C90.8709 425.2 90.8709 425.5 90.6709 425.7C90.6709 425.7 90.4709 425.8 90.3709 425.8V425.8ZM0.770898 404.5C0.470898 404.5 0.270898 404.3 0.270898 404C0.270898 402.4 0.170898 400.7 0.170898 399C0.170898 396.6 0.170898 394.3 0.470898 391.9C0.470898 391.6 0.670898 391.4 0.970898 391.4C1.2709 391.4 1.4709 391.7 1.4709 391.9C1.2709 394.2 1.1709 396.6 1.1709 398.9C1.1709 401.2 1.1709 402.2 1.2709 403.8C1.2709 404.1 1.0709 404.3 0.770898 404.3V404.5ZM2.5709 380.6C2.5709 380.6 2.5709 380.6 2.4709 380.6C2.1709 380.6 2.0709 380.3 2.0709 380C2.8709 376.2 3.8709 372.3 5.0709 368.3C5.0709 368 5.4709 367.9 5.6709 368C5.9709 368 6.0709 368.4 5.9709 368.6C4.7709 372.5 3.7709 376.4 2.9709 380.2C2.9709 380.4 2.6709 380.6 2.4709 380.6H2.5709ZM9.7709 357.7C9.7709 357.7 9.6709 357.7 9.5709 357.7C9.2709 357.6 9.1709 357.3 9.2709 357C10.7709 353.4 12.4709 349.8 14.2709 346.1C14.3709 345.9 14.6709 345.8 14.9709 345.9C15.1709 346 15.2709 346.3 15.1709 346.6C13.3709 350.3 11.6709 353.9 10.1709 357.5C10.1709 357.7 9.8709 357.8 9.6709 357.8L9.7709 357.7ZM20.4709 336.2H20.2709C20.0709 336.1 19.9709 335.8 20.0709 335.5C21.9709 332.2 23.9709 328.8 26.2709 325.2C26.3709 325 26.7709 324.9 26.9709 325C27.1709 325.1 27.2709 325.5 27.1709 325.7C24.8709 329.3 22.8709 332.7 20.9709 336C20.9709 336.2 20.6709 336.3 20.5709 336.3L20.4709 336.2ZM33.1709 315.9C33.1709 315.9 32.9709 315.9 32.8709 315.9C32.6709 315.7 32.5709 315.4 32.7709 315.2C34.9709 311.9 37.2709 308.6 39.5709 305.3C39.7709 305.1 40.0709 305 40.2709 305.2C40.4709 305.4 40.5709 305.7 40.3709 305.9C38.0709 309.2 35.7709 312.5 33.5709 315.8C33.5709 315.9 33.2709 316 33.1709 316V315.9ZM46.8709 296.2C46.7709 296.2 46.6709 296.2 46.5709 296.2C46.3709 296 46.2709 295.7 46.4709 295.5C48.7709 292.3 51.2709 289 53.6709 285.9C53.8709 285.7 54.1709 285.6 54.3709 285.9C54.5709 286.1 54.6709 286.4 54.3709 286.6C51.9709 289.8 49.5709 293 47.1709 296.2C47.1709 296.3 46.9709 296.4 46.7709 296.4L46.8709 296.2ZM61.3709 277.1C61.2709 277.1 61.1709 277.1 61.0709 277C60.8709 276.8 60.7709 276.5 61.0709 276.3C63.5709 273.2 66.0709 270.1 68.6709 267C68.8709 266.8 69.1709 266.8 69.3709 267C69.5709 267.2 69.5709 267.5 69.3709 267.7C66.8709 270.8 64.2709 273.9 61.7709 277C61.7709 277.1 61.5709 277.2 61.3709 277.2V277.1ZM76.6709 258.6C76.5709 258.6 76.4709 258.6 76.3709 258.5C76.1709 258.3 76.1709 258 76.3709 257.8C78.9709 254.8 81.6709 251.8 84.3709 248.8C84.5709 248.6 84.8709 248.6 85.0709 248.8C85.2709 249 85.2709 249.3 85.0709 249.5C82.3709 252.5 79.6709 255.5 77.1709 258.5C77.1709 258.6 76.9709 258.7 76.7709 258.7L76.6709 258.6ZM92.7709 240.8C92.6709 240.8 92.5709 240.8 92.4709 240.7C92.2709 240.5 92.2709 240.2 92.4709 240C95.1709 237.1 97.9709 234.2 100.771 231.3C100.971 231.1 101.271 231.1 101.471 231.3C101.671 231.5 101.671 231.8 101.471 232C98.6709 234.8 95.8709 237.7 93.1709 240.6C93.1709 240.7 92.9709 240.8 92.7709 240.8Z" fill="#079263"/>
</g>
<defs>
<clipPath id="clip0_201_7712">
<rect width="387" height="584.1" fill="white" transform="translate(0.170898)"/>
</clipPath>
</defs>
</svg>
