<svg width="118" height="85" viewBox="0 0 118 85" fill="none" xmlns="http://www.w3.org/2000/svg">
    <rect x="0.5" y="0.5" width="117" height="84" rx="9.5" fill="#F9F9F9" stroke="#DCDCDC" />
    <path
        d="M21.5 31C21.5 25.7533 25.7533 21.5 31 21.5H117.5V75C117.5 80.2467 113.247 84.5 108 84.5H21.5V31Z"
        fill="white" stroke="#DCDCDC" />
    <path
        d="M39.892 46.444H34.654L33.754 49H31.612L36.094 36.472H38.47L42.952 49H40.792L39.892 46.444ZM39.316 44.77L37.282 38.956L35.23 44.77H39.316ZM44.2168 43.996C44.2168 43 44.4208 42.118 44.8288 41.35C45.2488 40.582 45.8128 39.988 46.5208 39.568C47.2408 39.136 48.0328 38.92 48.8968 38.92C49.6768 38.92 50.3548 39.076 50.9308 39.388C51.5188 39.688 51.9868 40.066 52.3348 40.522V39.082H54.4048V49H52.3348V47.524C51.9868 47.992 51.5128 48.382 50.9128 48.694C50.3128 49.006 49.6288 49.162 48.8608 49.162C48.0088 49.162 47.2288 48.946 46.5208 48.514C45.8128 48.07 45.2488 47.458 44.8288 46.678C44.4208 45.886 44.2168 44.992 44.2168 43.996ZM52.3348 44.032C52.3348 43.348 52.1908 42.754 51.9028 42.25C51.6268 41.746 51.2608 41.362 50.8048 41.098C50.3488 40.834 49.8568 40.702 49.3288 40.702C48.8008 40.702 48.3088 40.834 47.8528 41.098C47.3968 41.35 47.0248 41.728 46.7368 42.232C46.4608 42.724 46.3228 43.312 46.3228 43.996C46.3228 44.68 46.4608 45.28 46.7368 45.796C47.0248 46.312 47.3968 46.708 47.8528 46.984C48.3208 47.248 48.8128 47.38 49.3288 47.38C49.8568 47.38 50.3488 47.248 50.8048 46.984C51.2608 46.72 51.6268 46.336 51.9028 45.832C52.1908 45.316 52.3348 44.716 52.3348 44.032Z"
        fill="#110011" />
</svg>
    