<svg width="138" height="206" viewBox="0 0 138 206" fill="none" xmlns="http://www.w3.org/2000/svg">
<path opacity="0.32" d="M9.9791 200.332L0.881379 116.409C0.790209 115.52 0.888523 114.621 1.16984 113.773C1.45116 112.924 1.9091 112.145 2.51348 111.486C3.11786 110.827 3.85496 110.304 4.67623 109.951C5.49749 109.598 6.38426 109.423 7.27812 109.437L76.8734 110.812C78.4153 110.847 79.8914 111.443 81.0244 112.489C82.1574 113.536 82.8693 114.96 83.0263 116.494L90.9032 195.487C90.9944 196.341 90.9104 197.204 90.6563 198.025C90.4021 198.845 89.9832 199.604 89.4252 200.257C88.8672 200.91 88.1819 201.442 87.4112 201.82C86.6404 202.199 85.8005 202.416 84.9429 202.459L16.5671 205.926C14.9643 206.003 13.3922 205.468 12.1691 204.429C10.946 203.39 10.1631 201.926 9.9791 200.332V200.332Z" fill="url(#paint0_linear_201_9865)"/>
<path d="M106.402 75.9195C104.651 75.9171 102.959 75.2774 101.644 74.1197C100.329 72.962 99.4805 71.3655 99.2561 69.628L94.2188 31.2834C93.9006 28.8285 93.102 26.4604 91.8686 24.3142C90.6352 22.1679 88.9912 20.2857 87.0303 18.7748C85.0695 17.264 82.8302 16.1541 80.4405 15.5087C78.0507 14.8632 75.5572 14.6948 73.1024 15.013C68.1446 15.6556 63.6451 18.2414 60.5938 22.2014C57.5425 26.1615 56.1893 31.1716 56.832 36.1294L60.2312 62.6573C60.3916 63.6208 60.3552 64.6068 60.1243 65.5559C59.8933 66.505 59.4725 67.3974 58.8872 68.1795C58.302 68.9615 57.5644 69.6169 56.719 70.1062C55.8736 70.5954 54.9378 70.9084 53.9682 71.0262C52.9985 71.144 52.0151 71.0642 51.0771 70.7917C50.1391 70.5191 49.2661 70.0594 48.5106 69.4402C47.7551 68.8211 47.1328 68.0554 46.6813 67.1892C46.2298 66.3231 45.9583 65.3745 45.8834 64.4006L42.404 37.8882C41.841 33.5496 42.138 29.1426 43.2781 24.9188C44.4182 20.695 46.379 16.7372 49.0487 13.2712C51.7184 9.80524 55.0446 6.89904 58.8375 4.71854C62.6303 2.53805 66.8155 1.12596 71.1541 0.562904C75.4926 -0.000152599 79.8996 0.296848 84.1234 1.43695C88.3472 2.57705 92.3051 4.53793 95.771 7.20761C99.237 9.8773 102.143 13.2035 104.324 16.9964C106.504 20.7892 107.916 24.9744 108.479 29.313L113.501 67.6575C113.626 68.598 113.564 69.5539 113.319 70.4705C113.074 71.387 112.651 72.2462 112.073 72.999C111.496 73.7517 110.775 74.3832 109.953 74.8572C109.132 75.3313 108.224 75.6386 107.284 75.7617C106.994 75.8365 106.7 75.8892 106.402 75.9195Z" fill="url(#paint1_linear_201_9865)"/>
<g opacity="0.6">
<path opacity="0.6" d="M97.122 8.71048C92.0744 5.38061 86.177 3.56982 80.1305 3.4933C74.084 3.41677 68.1427 5.07771 63.0124 8.27876C57.8822 11.4798 53.7788 16.0864 51.1899 21.5511C48.6009 27.0158 47.6352 33.1089 48.4075 39.1063L51.6358 64.2222C51.7643 65.2866 52.1367 66.3071 52.7238 67.2042C51.5189 66.7846 50.4552 66.0369 49.6525 65.0453C48.8497 64.0537 48.3398 62.8576 48.1803 61.5918L44.9736 36.4759C44.157 30.1144 45.2967 23.655 48.241 17.957C51.1853 12.259 55.7947 7.59246 61.456 4.5782C67.1173 1.56394 73.5622 0.344804 79.9333 1.08297C86.3045 1.82113 92.2998 4.4816 97.122 8.71048V8.71048Z" fill="url(#paint2_linear_201_9865)"/>
<path opacity="0.6" d="M105.367 73.1658C104.16 72.7529 103.092 72.01 102.285 71.0212C101.478 70.0324 100.964 68.8373 100.801 67.5714L96.0257 31.2833C95.5023 27.3101 93.6608 23.6273 90.7959 20.825C93.1318 22.1911 95.1228 24.0755 96.6154 26.3328C98.108 28.5901 99.0622 31.16 99.4046 33.8444L104.215 70.2018C104.355 71.2674 104.749 72.2836 105.365 73.1646L105.367 73.1658Z" fill="url(#paint3_linear_201_9865)"/>
</g>
<path d="M124.256 162.591L43.2961 167.645C41.4043 167.393 39.6053 166.673 38.0622 165.55C36.519 164.427 35.2806 162.936 34.459 161.214L25.4653 80.3587C25.4653 80.3587 30.2934 61.5703 47.1784 61.8476C55.579 61.9875 126.482 142.337 136.069 156.473C133.842 161.144 124.256 162.591 124.256 162.591Z" fill="url(#paint4_linear_201_9865)"/>
<path d="M51.9585 157.156L42.4244 68.8926C42.3197 67.9544 42.4168 67.0047 42.7091 66.1071C43.0015 65.2095 43.4823 64.3848 44.1194 63.6883C44.7565 62.9917 45.5352 62.4394 46.4032 62.0683C47.2713 61.6973 48.2086 61.5161 49.1523 61.537L118.766 62.9143C121.386 62.9532 123.901 63.9555 125.83 65.7301C127.758 67.5048 128.966 69.9274 129.223 72.5358L137.114 152.047C137.205 152.943 137.113 153.848 136.843 154.707C136.573 155.566 136.131 156.362 135.544 157.045C134.957 157.728 134.237 158.285 133.429 158.681C132.62 159.077 131.739 159.305 130.839 159.35L58.8897 163.056C57.1963 163.15 55.5317 162.588 54.2407 161.488C52.9498 160.389 52.1313 158.834 51.9549 157.147L51.9585 157.156Z" fill="url(#paint5_linear_201_9865)"/>
<path opacity="0.32" d="M100.717 115.585L101.815 128.71C101.935 130.326 101.413 131.924 100.363 133.158C99.3118 134.391 97.8169 135.16 96.2024 135.298L94.703 135.438C93.8995 135.507 93.0902 135.418 92.3215 135.174C91.5527 134.93 90.8395 134.537 90.2227 134.018C89.6059 133.498 89.0977 132.862 88.727 132.146C88.3563 131.429 88.1304 130.647 88.0624 129.843L86.9863 117.137C84.7275 116.151 82.7745 114.577 81.3307 112.579C79.8869 110.581 79.005 108.233 78.7769 105.779L77.7833 94.0134C77.5734 92.1861 77.7327 90.3353 78.2516 88.5707C78.7706 86.8062 79.6387 85.1638 80.8044 83.7411C81.9701 82.3184 83.4097 81.1444 85.0378 80.2886C86.6658 79.4328 88.4492 78.9128 90.2821 78.7593C92.115 78.6059 93.96 78.8221 95.7077 79.3952C97.4554 79.9683 99.0702 80.8866 100.456 82.0957C101.842 83.3047 102.971 84.7798 103.777 86.4335C104.582 88.0872 105.047 89.8858 105.143 91.7225L106.154 103.522C106.335 105.828 105.932 108.142 104.982 110.251C104.032 112.359 102.565 114.194 100.717 115.585V115.585Z" fill="url(#paint6_linear_201_9865)"/>
<path d="M89.9935 120.149L91.0217 133.274C91.0741 133.737 91.0741 134.205 91.0217 134.668C90.1848 134.166 89.4785 133.473 88.9604 132.646C88.4424 131.819 88.1273 130.881 88.041 129.909L86.9649 117.203C84.7111 116.202 82.767 114.615 81.3353 112.607C79.9036 110.599 79.0367 108.244 78.8249 105.787L77.8313 94.0216C77.6766 92.1523 77.9059 90.271 78.5053 88.4936C79.1047 86.7163 80.0614 85.0803 81.3166 83.6864C84.6697 83.8062 87.863 85.1493 90.2937 87.4622C92.7245 89.775 94.2245 92.8977 94.5106 96.2407L95.5042 108.041C95.6899 110.361 95.2814 112.69 94.3172 114.809C93.353 116.927 91.865 118.765 89.9935 120.149V120.149Z" fill="white"/>
<path opacity="0.5" d="M27.9524 78.8798C27.9524 78.8798 35.9346 72.1698 42.5238 69.7642C42.1399 67.4224 42.6772 65.0229 44.0232 63.0685C44.0232 63.0685 32.9897 65.3546 27.9524 78.8798Z" fill="url(#paint7_linear_201_9865)"/>
<defs>
<linearGradient id="paint0_linear_201_9865" x1="45.8937" y1="205.934" x2="45.8937" y2="109.436" gradientUnits="userSpaceOnUse">
<stop stop-color="#D6CAFF"/>
<stop offset="0.21" stop-color="#C8BCF3"/>
<stop offset="0.6" stop-color="#A597D3"/>
<stop offset="1" stop-color="#7A6AAD"/>
</linearGradient>
<linearGradient id="paint1_linear_201_9865" x1="77.9168" y1="75.9195" x2="77.9168" y2="0.512748" gradientUnits="userSpaceOnUse">
<stop stop-color="#FFFFD6"/>
<stop offset="0.14" stop-color="#F1F2D3"/>
<stop offset="0.4" stop-color="#CCD1C9"/>
<stop offset="0.76" stop-color="#909CBB"/>
<stop offset="1" stop-color="#6475B0"/>
</linearGradient>
<linearGradient id="paint2_linear_201_9865" x1="70.9193" y1="67.2042" x2="70.9193" y2="0.873077" gradientUnits="userSpaceOnUse">
<stop/>
<stop offset="1" stop-color="white"/>
</linearGradient>
<linearGradient id="paint3_linear_201_9865" x1="98.0962" y1="20.825" x2="98.0962" y2="20.8773" gradientUnits="userSpaceOnUse">
<stop/>
<stop offset="1" stop-color="white"/>
</linearGradient>
<linearGradient id="paint4_linear_201_9865" x1="80.7672" y1="167.645" x2="80.7672" y2="61.8446" gradientUnits="userSpaceOnUse">
<stop stop-color="#A190F0"/>
<stop offset="1" stop-color="#D4BDF0"/>
</linearGradient>
<linearGradient id="paint5_linear_201_9865" x1="89.7658" y1="163.066" x2="89.7658" y2="61.5353" gradientUnits="userSpaceOnUse">
<stop stop-color="#8D78ED"/>
<stop offset="1" stop-color="#BE9BE8"/>
</linearGradient>
<linearGradient id="paint6_linear_201_9865" x1="91.9734" y1="135.517" x2="91.9734" y2="79.0519" gradientUnits="userSpaceOnUse">
<stop stop-color="#D6CAFF"/>
<stop offset="0.21" stop-color="#C8BCF3"/>
<stop offset="0.6" stop-color="#A597D3"/>
<stop offset="1" stop-color="#7A6AAD"/>
</linearGradient>
<linearGradient id="paint7_linear_201_9865" x1="35.9878" y1="63.0685" x2="35.9878" y2="63.0685" gradientUnits="userSpaceOnUse">
<stop/>
<stop offset="1" stop-color="white"/>
</linearGradient>
</defs>
</svg>
