<svg width="33" height="26" viewBox="0 0 33 26" fill="none" xmlns="http://www.w3.org/2000/svg">
<g id="logos:mastercard" clip-path="url(#clip0_545_4677)">
<path id="Vector" d="M5.99914 25.5248V23.827C5.99914 23.176 5.60288 22.7517 4.92367 22.7517C4.58413 22.7517 4.21623 22.8648 3.96152 23.2327C3.76352 22.9214 3.48057 22.7517 3.05608 22.7517C2.773 22.7517 2.49018 22.8365 2.26369 23.1478V22.8082H1.66943V25.5248H2.26369V24.025C2.26369 23.544 2.51841 23.3176 2.91467 23.3176C3.31067 23.3176 3.50893 23.5723 3.50893 24.025V25.5248H4.10318V24.025C4.10318 23.544 4.386 23.3176 4.7539 23.3176C5.15016 23.3176 5.34816 23.5723 5.34816 24.025V25.5248H5.99914ZM14.7997 22.8082H13.8377V21.9876H13.2434V22.8082H12.7057V23.3458H13.2433V24.591C13.2433 25.2136 13.498 25.5814 14.1772 25.5814C14.4319 25.5814 14.7147 25.4966 14.913 25.3834L14.7431 24.874C14.5733 24.9871 14.3753 25.0155 14.2338 25.0155C13.9508 25.0155 13.8377 24.8457 13.8377 24.5627V23.3458H14.7997V22.8082ZM19.8368 22.7515C19.4973 22.7515 19.2709 22.9214 19.1294 23.1478V22.8082H18.5351V25.5248H19.1294V23.9968C19.1294 23.544 19.3274 23.2893 19.6953 23.2893C19.8085 23.2893 19.95 23.3177 20.0632 23.3459L20.233 22.78C20.1198 22.7517 19.95 22.7517 19.8368 22.7517V22.7515ZM12.2247 23.0346C11.9416 22.8365 11.5455 22.7517 11.121 22.7517C10.4419 22.7517 9.98917 23.0912 9.98917 23.6289C9.98917 24.0817 10.3287 24.3363 10.923 24.4212L11.2059 24.4496C11.5172 24.5061 11.687 24.591 11.687 24.7326C11.687 24.9306 11.4606 25.0721 11.0644 25.0721C10.6683 25.0721 10.3569 24.9306 10.1588 24.7891L9.87586 25.2419C10.1872 25.4682 10.6117 25.5814 11.036 25.5814C11.8284 25.5814 12.2813 25.2136 12.2813 24.7042C12.2813 24.2231 11.9134 23.9684 11.3473 23.8836L11.0644 23.8552C10.8097 23.8269 10.6117 23.7704 10.6117 23.6006C10.6117 23.4025 10.8097 23.2893 11.121 23.2893C11.4606 23.2893 11.8002 23.4307 11.9699 23.5157L12.2247 23.0346ZM28.015 22.7517C27.6754 22.7517 27.449 22.9214 27.3075 23.1478V22.8082H26.7132V25.5248H27.3075V23.9968C27.3075 23.544 27.5056 23.2893 27.8734 23.2893C27.9867 23.2893 28.1282 23.3177 28.2414 23.3459L28.4112 22.78C28.298 22.7517 28.1282 22.7517 28.015 22.7517ZM20.4311 24.1665C20.4311 24.9871 20.997 25.5814 21.8743 25.5814C22.2705 25.5814 22.5534 25.4966 22.8364 25.2702L22.5534 24.7891C22.327 24.9589 22.1007 25.0437 21.846 25.0437C21.3649 25.0437 21.0254 24.7042 21.0254 24.1665C21.0254 23.6572 21.3649 23.3176 21.846 23.2893C22.1007 23.2893 22.327 23.3741 22.5534 23.544L22.8364 23.063C22.5534 22.8365 22.2705 22.7517 21.8743 22.7517C20.997 22.7517 20.4311 23.3459 20.4311 24.1665ZM25.921 24.1665V22.8082H25.3267V23.1478C25.1286 22.8932 24.8456 22.7517 24.4777 22.7517C23.7137 22.7517 23.1194 23.3459 23.1194 24.1665C23.1194 24.9871 23.7137 25.5814 24.4777 25.5814C24.8739 25.5814 25.1569 25.44 25.3267 25.1853V25.5248H25.921V24.1665ZM23.7419 24.1665C23.7419 23.6855 24.0532 23.2893 24.5625 23.2893C25.0436 23.2893 25.3833 23.6572 25.3833 24.1665C25.3833 24.6476 25.0436 25.0437 24.5625 25.0437C24.0532 25.0154 23.7419 24.6476 23.7419 24.1665ZM16.6392 22.7517C15.8468 22.7517 15.2808 23.3176 15.2808 24.1665C15.2808 25.0155 15.8467 25.5814 16.6674 25.5814C17.0635 25.5814 17.4598 25.4682 17.7711 25.2136L17.488 24.7891C17.2617 24.9589 16.9787 25.0721 16.6958 25.0721C16.3279 25.0721 15.96 24.9023 15.875 24.4211H17.8843V24.1949C17.9127 23.3176 17.4033 22.7517 16.6392 22.7517ZM16.6392 23.261C17.007 23.261 17.2618 23.4875 17.3183 23.9119H15.9034C15.96 23.544 16.2147 23.261 16.6392 23.261ZM31.3825 24.1665V21.7329H30.7882V23.1478C30.5901 22.8932 30.3071 22.7517 29.9392 22.7517C29.1752 22.7517 28.5809 23.3459 28.5809 24.1665C28.5809 24.9871 29.1752 25.5814 29.9392 25.5814C30.3355 25.5814 30.6184 25.44 30.7882 25.1853V25.5248H31.3825V24.1665ZM29.2036 24.1665C29.2036 23.6855 29.5147 23.2893 30.0242 23.2893C30.5053 23.2893 30.8448 23.6572 30.8448 24.1665C30.8448 24.6476 30.5053 25.0437 30.0242 25.0437C29.5147 25.0154 29.2036 24.6476 29.2036 24.1665ZM9.3382 24.1665V22.8082H8.74394V23.1478C8.54581 22.8932 8.26286 22.7517 7.89496 22.7517C7.13093 22.7517 6.53668 23.3459 6.53668 24.1665C6.53668 24.9871 7.13093 25.5814 7.89496 25.5814C8.29122 25.5814 8.57417 25.44 8.74394 25.1853V25.5248H9.3382V24.1665ZM7.13093 24.1665C7.13093 23.6855 7.44224 23.2893 7.95155 23.2893C8.43263 23.2893 8.7723 23.6572 8.7723 24.1665C8.7723 24.6476 8.43263 25.0437 7.95155 25.0437C7.44224 25.0154 7.13093 24.6476 7.13093 24.1665Z" fill="black"/>
<path id="Vector_2" d="M12.0269 2.17896H20.9407V18.1957H12.0269V2.17896Z" fill="#FF5F00"/>
<path id="Vector_3" d="M12.5927 10.1873C12.5927 6.93309 14.1208 4.04663 16.4694 2.1789C14.7434 0.820617 12.5645 0 10.1875 0C4.55593 0 0 4.55593 0 10.1873C0 15.8186 4.55593 20.3747 10.1873 20.3747C12.5644 20.3747 14.7433 19.554 16.4694 18.1956C14.1208 16.3563 12.5927 13.4416 12.5927 10.1873Z" fill="#EB001B"/>
<path id="Vector_4" d="M32.9675 10.1873C32.9675 15.8186 28.4116 20.3747 22.7802 20.3747C20.4031 20.3747 18.2242 19.554 16.498 18.1956C18.8751 16.328 20.3749 13.4416 20.3749 10.1873C20.3749 6.93309 18.8467 4.04663 16.498 2.1789C18.2241 0.820617 20.4031 0 22.7802 0C28.4116 0 32.9675 4.58429 32.9675 10.1873Z" fill="#F79E1B"/>
</g>
<defs>
<clipPath id="clip0_545_4677">
<rect width="33" height="25.6523" fill="white"/>
</clipPath>
</defs>
</svg>
