<svg width="24" height="24" viewBox="0 0 24 24" fill="none" xmlns="http://www.w3.org/2000/svg">
    <g filter="url(#filter0_i_523_4621)">
        <path
            d="M17.6325 4.22408C18.0075 5.75408 18.0525 7.41908 17.6475 9.14408C16.7025 13.1416 13.4175 16.2766 9.38254 17.0041C7.20004 17.4016 5.12254 17.1016 3.31504 16.3141C2.89504 16.1266 2.49754 16.6066 2.71504 17.0116C4.70254 20.6716 8.79754 23.0116 13.38 22.4041C18.0525 21.7816 21.795 17.9716 22.3575 13.2916C22.8075 9.40658 21.1575 5.89658 18.3975 3.72908C18.045 3.45908 17.5275 3.78908 17.6325 4.22408Z"
            fill="url(#paint0_linear_523_4621)" />
        <path
            d="M17.6325 4.22408C18.0075 5.75408 18.0525 7.41908 17.6475 9.14408C16.7025 13.1416 13.4175 16.2766 9.38254 17.0041C7.20004 17.4016 5.12254 17.1016 3.31504 16.3141C2.89504 16.1266 2.49754 16.6066 2.71504 17.0116C4.70254 20.6716 8.79754 23.0116 13.38 22.4041C18.0525 21.7816 21.795 17.9716 22.3575 13.2916C22.8075 9.40658 21.1575 5.89658 18.3975 3.72908C18.045 3.45908 17.5275 3.78908 17.6325 4.22408Z"
            fill="url(#paint1_radial_523_4621)" />
        <path
            d="M17.6325 4.22408C18.0075 5.75408 18.0525 7.41908 17.6475 9.14408C16.7025 13.1416 13.4175 16.2766 9.38254 17.0041C7.20004 17.4016 5.12254 17.1016 3.31504 16.3141C2.89504 16.1266 2.49754 16.6066 2.71504 17.0116C4.70254 20.6716 8.79754 23.0116 13.38 22.4041C18.0525 21.7816 21.795 17.9716 22.3575 13.2916C22.8075 9.40658 21.1575 5.89658 18.3975 3.72908C18.045 3.45908 17.5275 3.78908 17.6325 4.22408Z"
            fill="url(#paint2_radial_523_4621)" />
    </g>
    <path
        d="M17.6325 4.22408C18.0075 5.75408 18.0525 7.41908 17.6475 9.14408C16.7025 13.1416 13.4175 16.2766 9.38254 17.0041C7.20004 17.4016 5.12254 17.1016 3.31504 16.3141C2.89504 16.1266 2.49754 16.6066 2.71504 17.0116C4.70254 20.6716 8.79754 23.0116 13.38 22.4041C18.0525 21.7816 21.795 17.9716 22.3575 13.2916C22.8075 9.40658 21.1575 5.89658 18.3975 3.72908C18.045 3.45908 17.5275 3.78908 17.6325 4.22408Z"
        fill="url(#paint3_radial_523_4621)" />
    <g filter="url(#filter1_f_523_4621)">
        <path
            d="M10.1101 20.2591C10.4224 20.2591 10.7219 20.135 10.9427 19.9142C11.1636 19.6933 11.2876 19.3938 11.2876 19.0816C11.2876 18.7693 11.1636 18.4698 10.9427 18.2489C10.7219 18.0281 10.4224 17.9041 10.1101 17.9041C9.79782 17.9041 9.49832 18.0281 9.2775 18.2489C9.05668 18.4698 8.93262 18.7693 8.93262 19.0816C8.93262 19.3938 9.05668 19.6933 9.2775 19.9142C9.49832 20.135 9.79782 20.2591 10.1101 20.2591Z"
            stroke="url(#paint4_linear_523_4621)" stroke-width="0.3" />
    </g>
    <g filter="url(#filter2_ii_523_4621)">
        <path
            d="M10.1101 20.2591C10.4224 20.2591 10.7219 20.135 10.9427 19.9142C11.1636 19.6933 11.2876 19.3938 11.2876 19.0816C11.2876 18.7693 11.1636 18.4698 10.9427 18.2489C10.7219 18.0281 10.4224 17.9041 10.1101 17.9041C9.79782 17.9041 9.49832 18.0281 9.2775 18.2489C9.05668 18.4698 8.93262 18.7693 8.93262 19.0816C8.93262 19.3938 9.05668 19.6933 9.2775 19.9142C9.49832 20.135 9.79782 20.2591 10.1101 20.2591Z"
            fill="url(#paint5_radial_523_4621)" />
    </g>
    <g filter="url(#filter3_f_523_4621)">
        <path
            d="M19.8001 10.5991C20.1124 10.5991 20.4119 10.4751 20.6327 10.2543C20.8535 10.0334 20.9776 9.73393 20.9776 9.42164C20.9776 9.10935 20.8535 8.80985 20.6327 8.58902C20.4119 8.3682 20.1124 8.24414 19.8001 8.24414C19.4878 8.24414 19.1883 8.3682 18.9674 8.58902C18.7466 8.80985 18.6226 9.10935 18.6226 9.42164C18.6226 9.73393 18.7466 10.0334 18.9674 10.2543C19.1883 10.4751 19.4878 10.5991 19.8001 10.5991Z"
            stroke="url(#paint6_linear_523_4621)" stroke-width="0.2" />
    </g>
    <g filter="url(#filter4_ii_523_4621)">
        <path
            d="M19.8001 10.5991C20.1124 10.5991 20.4119 10.4751 20.6327 10.2543C20.8535 10.0334 20.9776 9.73393 20.9776 9.42164C20.9776 9.10935 20.8535 8.80985 20.6327 8.58902C20.4119 8.3682 20.1124 8.24414 19.8001 8.24414C19.4878 8.24414 19.1883 8.3682 18.9674 8.58902C18.7466 8.80985 18.6226 9.10935 18.6226 9.42164C18.6226 9.73393 18.7466 10.0334 18.9674 10.2543C19.1883 10.4751 19.4878 10.5991 19.8001 10.5991Z"
            fill="url(#paint7_radial_523_4621)" />
    </g>
    <g filter="url(#filter5_f_523_4621)">
        <path
            d="M20.1751 14.2291C20.372 14.2291 20.5609 14.1509 20.7001 14.0117C20.8394 13.8724 20.9176 13.6836 20.9176 13.4866C20.9176 13.2897 20.8394 13.1009 20.7001 12.9616C20.5609 12.8224 20.372 12.7441 20.1751 12.7441C19.9782 12.7441 19.7893 12.8224 19.6501 12.9616C19.5108 13.1009 19.4326 13.2897 19.4326 13.4866C19.4326 13.6836 19.5108 13.8724 19.6501 14.0117C19.7893 14.1509 19.9782 14.2291 20.1751 14.2291Z"
            stroke="url(#paint8_linear_523_4621)" stroke-width="0.2" />
    </g>
    <g filter="url(#filter6_ii_523_4621)">
        <path
            d="M20.1751 14.2291C20.372 14.2291 20.5609 14.1509 20.7001 14.0117C20.8394 13.8724 20.9176 13.6836 20.9176 13.4866C20.9176 13.2897 20.8394 13.1009 20.7001 12.9616C20.5609 12.8224 20.372 12.7441 20.1751 12.7441C19.9782 12.7441 19.7893 12.8224 19.6501 12.9616C19.5108 13.1009 19.4326 13.2897 19.4326 13.4866C19.4326 13.6836 19.5108 13.8724 19.6501 14.0117C19.7893 14.1509 19.9782 14.2291 20.1751 14.2291Z"
            fill="url(#paint9_radial_523_4621)" />
    </g>
    <g filter="url(#filter7_f_523_4621)">
        <path
            d="M16.425 18.7366C16.7205 18.7366 17.0131 18.6784 17.2861 18.5653C17.5591 18.4522 17.8071 18.2865 18.016 18.0776C18.225 17.8686 18.3907 17.6206 18.5038 17.3476C18.6169 17.0746 18.675 16.782 18.675 16.4866C18.675 16.1911 18.6169 15.8985 18.5038 15.6255C18.3907 15.3526 18.225 15.1045 18.016 14.8956C17.8071 14.6866 17.5591 14.5209 17.2861 14.4078C17.0131 14.2948 16.7205 14.2366 16.425 14.2366C15.8283 14.2366 15.256 14.4736 14.8341 14.8956C14.4121 15.3175 14.175 15.8898 14.175 16.4866C14.175 17.0833 14.4121 17.6556 14.8341 18.0776C15.256 18.4995 15.8283 18.7366 16.425 18.7366Z"
            stroke="url(#paint10_linear_523_4621)" stroke-width="0.3" />
    </g>
    <g filter="url(#filter8_ii_523_4621)">
        <path
            d="M16.425 18.7366C16.7205 18.7366 17.0131 18.6784 17.2861 18.5653C17.5591 18.4522 17.8071 18.2865 18.016 18.0776C18.225 17.8686 18.3907 17.6206 18.5038 17.3476C18.6169 17.0746 18.675 16.782 18.675 16.4866C18.675 16.1911 18.6169 15.8985 18.5038 15.6255C18.3907 15.3526 18.225 15.1045 18.016 14.8956C17.8071 14.6866 17.5591 14.5209 17.2861 14.4078C17.0131 14.2948 16.7205 14.2366 16.425 14.2366C15.8283 14.2366 15.256 14.4736 14.8341 14.8956C14.4121 15.3175 14.175 15.8898 14.175 16.4866C14.175 17.0833 14.4121 17.6556 14.8341 18.0776C15.256 18.4995 15.8283 18.7366 16.425 18.7366Z"
            fill="url(#paint11_radial_523_4621)" />
    </g>
    <defs>
        <filter id="filter0_i_523_4621" x="2.65356" y="3.13135" width="20.2776" height="19.3684"
            filterUnits="userSpaceOnUse" color-interpolation-filters="sRGB">
            <feFlood flood-opacity="0" result="BackgroundImageFix" />
            <feBlend mode="normal" in="SourceGraphic" in2="BackgroundImageFix" result="shape" />
            <feColorMatrix in="SourceAlpha" type="matrix"
                values="0 0 0 0 0 0 0 0 0 0 0 0 0 0 0 0 0 0 127 0" result="hardAlpha" />
            <feOffset dx="0.5" dy="-0.5" />
            <feGaussianBlur stdDeviation="0.5" />
            <feComposite in2="hardAlpha" operator="arithmetic" k2="-1" k3="1" />
            <feColorMatrix type="matrix"
                values="0 0 0 0 0.721569 0 0 0 0 0.372549 0 0 0 0 0.356863 0 0 0 1 0" />
            <feBlend mode="normal" in2="shape" result="effect1_innerShadow_523_4621" />
        </filter>
        <filter id="filter1_f_523_4621" x="8.48271" y="17.4542" width="3.25479" height="3.25479"
            filterUnits="userSpaceOnUse" color-interpolation-filters="sRGB">
            <feFlood flood-opacity="0" result="BackgroundImageFix" />
            <feBlend mode="normal" in="SourceGraphic" in2="BackgroundImageFix" result="shape" />
            <feGaussianBlur stdDeviation="0.15" result="effect1_foregroundBlur_523_4621" />
        </filter>
        <filter id="filter2_ii_523_4621" x="8.68262" y="17.5041" width="2.90498" height="3.00498"
            filterUnits="userSpaceOnUse" color-interpolation-filters="sRGB">
            <feFlood flood-opacity="0" result="BackgroundImageFix" />
            <feBlend mode="normal" in="SourceGraphic" in2="BackgroundImageFix" result="shape" />
            <feColorMatrix in="SourceAlpha" type="matrix"
                values="0 0 0 0 0 0 0 0 0 0 0 0 0 0 0 0 0 0 127 0" result="hardAlpha" />
            <feOffset dx="-0.25" dy="0.25" />
            <feGaussianBlur stdDeviation="0.375" />
            <feComposite in2="hardAlpha" operator="arithmetic" k2="-1" k3="1" />
            <feColorMatrix type="matrix"
                values="0 0 0 0 0.780392 0 0 0 0 0.462745 0 0 0 0 0.254902 0 0 0 1 0" />
            <feBlend mode="normal" in2="shape" result="effect1_innerShadow_523_4621" />
            <feColorMatrix in="SourceAlpha" type="matrix"
                values="0 0 0 0 0 0 0 0 0 0 0 0 0 0 0 0 0 0 127 0" result="hardAlpha" />
            <feOffset dx="0.3" dy="-0.4" />
            <feGaussianBlur stdDeviation="0.5" />
            <feComposite in2="hardAlpha" operator="arithmetic" k2="-1" k3="1" />
            <feColorMatrix type="matrix"
                values="0 0 0 0 1 0 0 0 0 0.839216 0 0 0 0 0.513726 0 0 0 1 0" />
            <feBlend mode="normal" in2="effect1_innerShadow_523_4621"
                result="effect2_innerShadow_523_4621" />
        </filter>
        <filter id="filter3_f_523_4621" x="18.3225" y="7.94404" width="2.95518" height="2.95518"
            filterUnits="userSpaceOnUse" color-interpolation-filters="sRGB">
            <feFlood flood-opacity="0" result="BackgroundImageFix" />
            <feBlend mode="normal" in="SourceGraphic" in2="BackgroundImageFix" result="shape" />
            <feGaussianBlur stdDeviation="0.1" result="effect1_foregroundBlur_523_4621" />
        </filter>
        <filter id="filter4_ii_523_4621" x="18.3726" y="7.94414" width="2.90498" height="2.90498"
            filterUnits="userSpaceOnUse" color-interpolation-filters="sRGB">
            <feFlood flood-opacity="0" result="BackgroundImageFix" />
            <feBlend mode="normal" in="SourceGraphic" in2="BackgroundImageFix" result="shape" />
            <feColorMatrix in="SourceAlpha" type="matrix"
                values="0 0 0 0 0 0 0 0 0 0 0 0 0 0 0 0 0 0 127 0" result="hardAlpha" />
            <feOffset dx="-0.25" dy="0.25" />
            <feGaussianBlur stdDeviation="0.2" />
            <feComposite in2="hardAlpha" operator="arithmetic" k2="-1" k3="1" />
            <feColorMatrix type="matrix"
                values="0 0 0 0 0.847059 0 0 0 0 0.552941 0 0 0 0 0.235294 0 0 0 1 0" />
            <feBlend mode="normal" in2="shape" result="effect1_innerShadow_523_4621" />
            <feColorMatrix in="SourceAlpha" type="matrix"
                values="0 0 0 0 0 0 0 0 0 0 0 0 0 0 0 0 0 0 127 0" result="hardAlpha" />
            <feOffset dx="0.3" dy="-0.3" />
            <feGaussianBlur stdDeviation="0.15" />
            <feComposite in2="hardAlpha" operator="arithmetic" k2="-1" k3="1" />
            <feColorMatrix type="matrix"
                values="0 0 0 0 1 0 0 0 0 0.921569 0 0 0 0 0.682353 0 0 0 1 0" />
            <feBlend mode="normal" in2="effect1_innerShadow_523_4621"
                result="effect2_innerShadow_523_4621" />
        </filter>
        <filter id="filter5_f_523_4621" x="19.1325" y="12.444" width="2.08506" height="2.08506"
            filterUnits="userSpaceOnUse" color-interpolation-filters="sRGB">
            <feFlood flood-opacity="0" result="BackgroundImageFix" />
            <feBlend mode="normal" in="SourceGraphic" in2="BackgroundImageFix" result="shape" />
            <feGaussianBlur stdDeviation="0.1" result="effect1_foregroundBlur_523_4621" />
        </filter>
        <filter id="filter6_ii_523_4621" x="19.2826" y="12.5441" width="1.83511" height="1.83511"
            filterUnits="userSpaceOnUse" color-interpolation-filters="sRGB">
            <feFlood flood-opacity="0" result="BackgroundImageFix" />
            <feBlend mode="normal" in="SourceGraphic" in2="BackgroundImageFix" result="shape" />
            <feColorMatrix in="SourceAlpha" type="matrix"
                values="0 0 0 0 0 0 0 0 0 0 0 0 0 0 0 0 0 0 127 0" result="hardAlpha" />
            <feOffset dx="-0.15" dy="0.15" />
            <feGaussianBlur stdDeviation="0.1" />
            <feComposite in2="hardAlpha" operator="arithmetic" k2="-1" k3="1" />
            <feColorMatrix type="matrix"
                values="0 0 0 0 0.847059 0 0 0 0 0.552941 0 0 0 0 0.235294 0 0 0 1 0" />
            <feBlend mode="normal" in2="shape" result="effect1_innerShadow_523_4621" />
            <feColorMatrix in="SourceAlpha" type="matrix"
                values="0 0 0 0 0 0 0 0 0 0 0 0 0 0 0 0 0 0 127 0" result="hardAlpha" />
            <feOffset dx="0.2" dy="-0.2" />
            <feGaussianBlur stdDeviation="0.1" />
            <feComposite in2="hardAlpha" operator="arithmetic" k2="-1" k3="1" />
            <feColorMatrix type="matrix"
                values="0 0 0 0 1 0 0 0 0 0.921569 0 0 0 0 0.682353 0 0 0 1 0" />
            <feBlend mode="normal" in2="effect1_innerShadow_523_4621"
                result="effect2_innerShadow_523_4621" />
        </filter>
        <filter id="filter7_f_523_4621" x="13.7251" y="13.7867" width="5.3998" height="5.3998"
            filterUnits="userSpaceOnUse" color-interpolation-filters="sRGB">
            <feFlood flood-opacity="0" result="BackgroundImageFix" />
            <feBlend mode="normal" in="SourceGraphic" in2="BackgroundImageFix" result="shape" />
            <feGaussianBlur stdDeviation="0.15" result="effect1_foregroundBlur_523_4621" />
        </filter>
        <filter id="filter8_ii_523_4621" x="13.925" y="13.8366" width="5.05" height="5.15"
            filterUnits="userSpaceOnUse" color-interpolation-filters="sRGB">
            <feFlood flood-opacity="0" result="BackgroundImageFix" />
            <feBlend mode="normal" in="SourceGraphic" in2="BackgroundImageFix" result="shape" />
            <feColorMatrix in="SourceAlpha" type="matrix"
                values="0 0 0 0 0 0 0 0 0 0 0 0 0 0 0 0 0 0 127 0" result="hardAlpha" />
            <feOffset dx="-0.25" dy="0.25" />
            <feGaussianBlur stdDeviation="0.375" />
            <feComposite in2="hardAlpha" operator="arithmetic" k2="-1" k3="1" />
            <feColorMatrix type="matrix"
                values="0 0 0 0 0.8 0 0 0 0 0.537255 0 0 0 0 0.270588 0 0 0 1 0" />
            <feBlend mode="normal" in2="shape" result="effect1_innerShadow_523_4621" />
            <feColorMatrix in="SourceAlpha" type="matrix"
                values="0 0 0 0 0 0 0 0 0 0 0 0 0 0 0 0 0 0 127 0" result="hardAlpha" />
            <feOffset dx="0.3" dy="-0.4" />
            <feGaussianBlur stdDeviation="0.5" />
            <feComposite in2="hardAlpha" operator="arithmetic" k2="-1" k3="1" />
            <feColorMatrix type="matrix"
                values="0 0 0 0 1 0 0 0 0 0.882353 0 0 0 0 0.611765 0 0 0 1 0" />
            <feBlend mode="normal" in2="effect1_innerShadow_523_4621"
                result="effect2_innerShadow_523_4621" />
        </filter>
        <linearGradient id="paint0_linear_523_4621" x1="21.516" y1="8.39108" x2="8.06254"
            y2="21.9848" gradientUnits="userSpaceOnUse">
            <stop stop-color="#FFD874" />
            <stop offset="1" stop-color="#FFBC4C" />
        </linearGradient>
        <radialGradient id="paint1_radial_523_4621" cx="0" cy="0" r="1"
            gradientUnits="userSpaceOnUse"
            gradientTransform="translate(11.0158 12.4691) rotate(-23.408) scale(11.7992 12.3676)">
            <stop offset="0.769" stop-color="#FFECAE" stop-opacity="0" />
            <stop offset="0.984" stop-color="#FFECAE" />
        </radialGradient>
        <radialGradient id="paint2_radial_523_4621" cx="0" cy="0" r="1"
            gradientUnits="userSpaceOnUse"
            gradientTransform="translate(6.52879 23.4106) rotate(-39.846) scale(10.5095 11.0158)">
            <stop stop-color="#FF984F" />
            <stop offset="1" stop-color="#FF984F" stop-opacity="0" />
        </radialGradient>
        <radialGradient id="paint3_radial_523_4621" cx="0" cy="0" r="1"
            gradientUnits="userSpaceOnUse"
            gradientTransform="translate(16.6294 8.63669) rotate(13.627) scale(1.97112 4.99191)">
            <stop offset="0.23" stop-color="#BA935B" />
            <stop offset="0.979" stop-color="#BA935B" stop-opacity="0" />
        </radialGradient>
        <linearGradient id="paint4_linear_523_4621" x1="11.1429" y1="18.4876" x2="9.80562"
            y2="19.1866" gradientUnits="userSpaceOnUse">
            <stop stop-color="#D0883B" />
            <stop offset="1" stop-color="#FFCA6D" />
        </linearGradient>
        <radialGradient id="paint5_radial_523_4621" cx="0" cy="0" r="1"
            gradientUnits="userSpaceOnUse"
            gradientTransform="translate(9.60952 19.2973) rotate(-22.978) scale(1.82235)">
            <stop stop-color="#FFBA6A" />
            <stop offset="1" stop-color="#EB9E58" />
        </radialGradient>
        <linearGradient id="paint6_linear_523_4621" x1="20.8111" y1="8.42039" x2="18.9713"
            y2="10.3906" gradientUnits="userSpaceOnUse">
            <stop stop-color="#E7AC47" />
            <stop offset="1" stop-color="#FFE9A7" />
        </linearGradient>
        <radialGradient id="paint7_radial_523_4621" cx="0" cy="0" r="1"
            gradientUnits="userSpaceOnUse"
            gradientTransform="translate(19.299 9.63717) rotate(-15.521) scale(1.74126)">
            <stop stop-color="#FFD778" />
            <stop offset="1" stop-color="#FFC767" />
        </radialGradient>
        <linearGradient id="paint8_linear_523_4621" x1="20.8126" y1="12.8559" x2="19.6524"
            y2="14.0979" gradientUnits="userSpaceOnUse">
            <stop stop-color="#E7AC47" />
            <stop offset="1" stop-color="#FFE9A7" />
        </linearGradient>
        <radialGradient id="paint9_radial_523_4621" cx="0" cy="0" r="1"
            gradientUnits="userSpaceOnUse"
            gradientTransform="translate(19.8587 13.6223) rotate(-15.521) scale(1.09799)">
            <stop stop-color="#FFDE8F" />
            <stop offset="1" stop-color="#FFC25B" />
        </radialGradient>
        <linearGradient id="paint10_linear_523_4621" x1="18.3983" y1="15.3518" x2="15.8438"
            y2="16.6876" gradientUnits="userSpaceOnUse">
            <stop stop-color="#E2A842" />
            <stop offset="1" stop-color="#FFD778" />
        </linearGradient>
        <radialGradient id="paint11_radial_523_4621" cx="0" cy="0" r="1"
            gradientUnits="userSpaceOnUse"
            gradientTransform="translate(15.4689 16.8987) rotate(-22.978) scale(3.4822)">
            <stop stop-color="#FFC75F" />
            <stop offset="1" stop-color="#FABC5A" />
        </radialGradient>
    </defs>
</svg>
    