<svg width="146" height="142" viewBox="0 0 146 142" fill="none" xmlns="http://www.w3.org/2000/svg">
    <path opacity="0.5"
        d="M7.23106 0.651611C-6.4128 0.651611 -22.7319 38.3732 -22.7319 38.3732V149.051H168.55V49.5653L162.932 52.8815C162.932 52.8815 154.103 46.5379 147.415 43.3475C136.153 37.9751 129.642 26.6316 118.255 31.3263C103.631 37.3552 104.819 61.4316 95.7824 80.24C89.3313 93.6677 87.4891 112.514 79.9983 111.329C69.5799 109.681 73.203 90.0766 65.5519 78.9965C58.4174 68.6644 52.583 68.252 45.4874 57.8558C37.847 46.6614 36.659 35.8861 31.0409 23.8649C24.5976 10.0779 18.2169 0.651611 7.23106 0.651611Z"
        fill="#3F434A" fill-opacity="0.05" />
    <path opacity="0.5"
        d="M-5.07571 56.1982C-15.647 54.8363 -23 73.1936 -23 73.1936V149.051H168.817V115.889C168.817 115.889 149.646 70.1175 135.643 75.2662C123.564 79.7076 124.832 102.382 113.706 110.915C106.393 116.524 99.4923 110.011 93.3741 118.377C87.83 125.957 85.8834 145.321 85.8834 145.321H69.5643C69.5643 145.321 62.4022 113.935 50.5699 103.039C41.8318 94.9926 33.3974 98.6184 24.3522 91.4326C12.6478 82.1343 8.03222 57.8868 -5.07571 56.1982Z"
        fill="#3F434A" fill-opacity="0.05" />
    <path
        d="M1.61251 101.796C-6.01776 100.393 -17.6494 108.014 -17.6494 108.014V149.051H168.817V134.957C168.817 134.957 153.965 97.2333 141.261 101.796C131.735 105.217 128.818 122.055 119.592 127.082C113.551 130.373 108.891 124.806 103.273 129.569C98.6671 133.473 94.1768 144.906 94.1768 144.906H61.806C61.806 144.906 51.3284 126.44 42.2766 120.864C34.3531 115.983 28.7573 120.601 20.6069 116.718C12.6572 112.932 9.87144 103.314 1.61251 101.796Z"
        fill="#3F434A" fill-opacity="0.05" />
</svg>