<svg width="38" height="38" viewBox="0 0 38 38" fill="none" xmlns="http://www.w3.org/2000/svg">
    <path d="M30.1941 30.1943C36.3849 24.0034 36.3849 13.9809 30.1941 7.80591" stroke="white"
        stroke-width="2" stroke-linecap="round" stroke-linejoin="round" />
    <path d="M7.80572 7.80591C1.61489 13.9967 1.61489 24.0193 7.80572 30.1943" stroke="white"
        stroke-width="2" stroke-linecap="round" stroke-linejoin="round" />
    <path
        d="M13.7749 33.8992C15.4691 34.485 17.2265 34.7701 18.9999 34.7701C20.7732 34.7542 22.5307 34.485 24.2249 33.8992"
        stroke="white" stroke-width="2" stroke-linecap="round" stroke-linejoin="round" />
    <path
        d="M13.7749 4.10089C15.4691 3.51506 17.2265 3.22998 18.9999 3.22998C20.7732 3.22998 22.5307 3.51506 24.2249 4.10089"
        stroke="white" stroke-width="2" stroke-linecap="round" stroke-linejoin="round" />
    <path
        d="M13.8384 19.0001V16.356C13.8384 13.0627 16.1659 11.7168 19.0159 13.3635L21.3117 14.6935L23.6076 16.0235C26.4576 17.6701 26.4576 20.3618 23.6076 22.0085L21.3117 23.3385L19.0159 24.6685C16.1659 26.3152 13.8384 24.9693 13.8384 21.676V19.0001Z"
        stroke="white" stroke-width="2" stroke-miterlimit="10" stroke-linecap="round"
        stroke-linejoin="round" />
</svg>
    