<svg width="225" height="172" viewBox="0 0 225 172" fill="none" xmlns="http://www.w3.org/2000/svg">
<g clip-path="url(#clip0_201_7776)">
<path d="M10.0329 63.5053C10.4742 62.9637 11.1661 62.6917 11.8581 62.7877L33.4816 65.788C33.936 65.8511 34.3555 65.9806 34.7582 66.2003C39.1929 68.6193 67.5068 84.7032 81.2818 108.224L72.8278 123.597L8 65.9998L10.0329 63.5053Z" fill="#00E799"/>
<path d="M224.869 14.0335C224.953 14.501 224.869 14.9833 224.63 15.3941L217.574 27.5531C217.363 27.9152 217.085 28.1835 216.708 28.3653C210.265 31.4691 147.324 63.7427 76.0859 172C76.0859 172 90.8209 44.8537 224.5 11.9997L224.869 14.0335Z" fill="#00E799"/>
<path d="M2.00998 76.932C0.964425 76.2919 0.701576 74.8672 1.47939 73.9196L9.92239 63.6336C10.4221 63.0248 11.2255 62.7688 11.9695 63.0274C17.4693 64.9394 41.0163 74.5992 73.2681 108.839C73.2681 108.839 135.305 12.3356 220.624 0.255587C221.687 0.1051 222.674 0.836266 222.851 1.89505L224.731 13.1488C224.888 14.0854 224.422 14.9838 223.548 15.3564C211.489 20.4998 127.11 59.7947 76.1742 172C76.1742 172 58.8801 111.749 2.00998 76.932Z" fill="#079263"/>
</g>
<defs>
<clipPath id="clip0_201_7776">
<rect y="-0.000244141" width="225" height="172" fill="white"/>
</clipPath>
</defs>
</svg>
