<svg width="24" height="24" viewBox="0 0 24 24" fill="none" xmlns="http://www.w3.org/2000/svg">
    <g clip-path="url(#clip0_495_7452)">
        <path
            d="M12.2168 1.99391L14.941 0.133164C15.1117 0.0165858 15.3461 0.0793983 15.4356 0.265726L16.8645 3.23934C16.8939 3.30057 16.9412 3.35151 17 3.38548C17.0588 3.41945 17.1265 3.43488 17.1943 3.42974L20.4839 3.18037C20.69 3.16476 20.8616 3.33637 20.846 3.54248L20.5967 6.83212C20.5915 6.89986 20.6069 6.96758 20.6409 7.02641C20.6749 7.08525 20.7258 7.13246 20.7871 7.16188L23.7607 8.59077C23.947 8.68031 24.0098 8.91473 23.8932 9.0854L22.0325 11.8096C21.9942 11.8657 21.9737 11.9321 21.9737 12C21.9737 12.068 21.9942 12.1343 22.0325 12.1904L23.8932 14.9146C24.0098 15.0853 23.947 15.3198 23.7607 15.4093L20.7871 16.8381C20.7258 16.8676 20.6749 16.9148 20.6409 16.9736C20.6069 17.0325 20.5915 17.1002 20.5967 17.1679L20.846 20.4576C20.8616 20.6637 20.69 20.8353 20.4839 20.8197L17.1943 20.5703C17.1265 20.5652 17.0588 20.5806 17 20.6146C16.9412 20.6485 16.8939 20.6995 16.8645 20.7607L15.4356 23.7343C15.3461 23.9206 15.1117 23.9834 14.941 23.8669L12.2168 22.0061C12.1607 21.9678 12.0943 21.9473 12.0264 21.9473C11.9584 21.9473 11.8921 21.9678 11.836 22.0061L9.11176 23.8669C8.94109 23.9834 8.70662 23.9206 8.61714 23.7343L7.18825 20.7607C7.15883 20.6995 7.11161 20.6485 7.05278 20.6146C6.99394 20.5806 6.92623 20.5652 6.85848 20.5703L3.56884 20.8197C3.36273 20.8353 3.19112 20.6637 3.20673 20.4576L3.45611 17.1679C3.46124 17.1002 3.44582 17.0325 3.41185 16.9736C3.37787 16.9148 3.32694 16.8676 3.2657 16.8381L0.292047 15.4093C0.105719 15.3197 0.0429061 15.0853 0.159484 14.9146L2.02023 12.1904C2.05856 12.1343 2.07906 12.068 2.07906 12C2.07906 11.9321 2.05856 11.8657 2.02023 11.8096L0.159531 9.08535C0.042953 8.91468 0.105765 8.68021 0.292094 8.59073L3.2657 7.16184C3.32694 7.13242 3.37787 7.0852 3.41185 7.02637C3.44582 6.96753 3.46124 6.89981 3.45611 6.83207L3.20673 3.54243C3.19112 3.33632 3.36273 3.16471 3.56884 3.18032L6.85848 3.4297C6.92623 3.43483 6.99394 3.4194 7.05278 3.38543C7.11161 3.35146 7.15883 3.30053 7.18825 3.23929L8.61714 0.26568C8.70667 0.0793514 8.94109 0.0165389 9.11176 0.133117L11.836 1.99387C11.8921 2.0322 11.9584 2.05272 12.0264 2.05272C12.0943 2.05273 12.1607 2.03223 12.2168 1.99391Z"
            fill="#FFC639" />
        <path
            d="M12.0263 21.1131C17.0594 21.1131 21.1395 17.033 21.1395 11.9999C21.1395 6.96684 17.0594 2.88672 12.0263 2.88672C6.99321 2.88672 2.91309 6.96684 2.91309 11.9999C2.91309 17.033 6.99321 21.1131 12.0263 21.1131Z"
            fill="#FFE564" />
    </g>
    <defs>
        <clipPath id="clip0_495_7452">
            <rect width="24" height="24" fill="white" />
        </clipPath>
    </defs>
</svg>
    